# xmcd
#
# Track frame offsets:
#	150
#	16010
#	34792
#	57173
#	77728
#	95161
#	111160
#
# Disc length: 1664 seconds
#
# Revision: 1
# Processed by: cddbd v1.5.1PL0 Copyright (c) Steve Scherf et al.
# Submitted via: audiograbber 1.83.01
#
DISCID=4e067e07
DTITLE=Baz Barrett - Ben´s Party 2005
DYEAR=2005
DGENRE=Musical
TTITLE0=Only a dream
TTITLE1=Kirsty´s song
TTITLE2=Feel no pain
TTITLE3=Like you´re on fire
TTITLE4=Too beautiful
TTITLE5=Do you lie to your self
TTITLE6=Ride a train
EXTD=
EXTT0=
EXTT1=
EXTT2=
EXTT3=
EXTT4=
EXTT5=
EXTT6=
PLAYORDER=
